<svg xmlns="http://www.w3.org/2000/svg" viewBox="0 0 880 540" width="880" height="540" style="width:100%;height:100%;transform:translate3d(0,0,0)"><defs><clipPath id="a"><path d="M0 0H880V540H0z"/></clipPath><linearGradient id="b" gradientUnits="userSpaceOnUse" x2=".234" y2="58.582"><stop offset="0%" stop-color="#B8CF31"/><stop offset="50%" stop-color="#D2DF91"/><stop offset="100%" stop-color="#ECEFF1"/></linearGradient></defs><g clip-path="url(#a)"><path fill="#EBEEF0" d="M401.784 197.26s27.03-77.47 78.72-77.47c50.96 0 64.28 25.09 87.79 87.05 11.1 29.27 49.44 39.19 65.58 72.77 30.93 64.33-18.22 107.04-48.87 124.66-36.17 20.8-54.28 52.31-88.36 48.27-34.07-4.03-29.58-9.87-51.44-10.94-76.91-3.78-110.09 12.13-143.35 18.51-80.11 15.38-117.27-127.1-48.97-154.91 80.17-32.64 119.62-68.34 127.69-88.77 8.07-20.43 21.21-19.17 21.21-19.17" display="block"/><path fill="#EEACA8" d="M371.76 206.3s-18.32-.51-22.77-2.45c-4.45-1.93 14.13-4.73 14.13-4.73l8.64 7.18z" display="block"/><path fill="#EEACA8" d="M367.87 190.67l-14.97-8.13 2.89 10.22 12.08-2.09z" display="block"/><path fill="#253139" d="M330.36 176.74s-.68-1.65.67-2.76c1.54-1.29 5.81-2.51 9.38-3.6.28-.09.6-.18.92-.28.33-.09.65-.18.93-.25 3.61-.97 7.88-2.2 9.87-1.93 1.73.23 2.03 1.98 2.03 1.98l5.67 19.76s5.87 20.4 6.23 21.69c.18.64.43 1.52-.23 2.35-.92 1.17-5.86 2.59-9.86 3.88-.29.09-.6.18-.92.27-.33.1-.64.18-.93.26-4.08 1.03-9.01 2.45-10.42 1.95-1-.36-1.25-1.24-1.44-1.88-.38-1.28-6.22-21.69-6.22-21.69l-5.68-19.75z" display="block"/><path fill="#AEBDC5" d="M342.59 215.76c.03.1.14.17.25.13l21.51-6.17c.1-.03.16-.14.13-.25l-11.09-38.64a.202.202 0 0 0-.25-.13l-21.51 6.17c-.1.03-.16.15-.13.25l11.09 38.64z" display="block"/><path fill="#FFF" d="M358.91 210.08c.04.11.12.13.18.04l.6-.75c.07-.09.04-.19-.06-.23l-.91-.32c-.1-.04-.16.02-.13.13l.32 1.13z" display="block"/><path fill="#FFF" d="M352.46 211.32c.12.43.56.67.98.55a.79.79 0 0 0 .55-.98.79.79 0 0 0-.98-.55.79.79 0 0 0-.55.98" display="block"/><path fill="#FFF" d="M346.59 213.64c.03.1.14.16.24.13l1.15-.32c.1-.03.16-.15.13-.25l-.32-1.15c-.03-.1-.15-.16-.25-.13l-1.15.33c-.1.03-.16.14-.13.24l.33 1.15z" display="block"/><path fill="#FFF" d="M338.17 195.4l19.32-5.54-4.22-14.68-19.31 5.55 4.21 14.67z" display="block"/><path fill="#546E77" d="M341.26 172.22c.1.35.46.55.82.45.35-.1.55-.47.45-.82a.655.655 0 0 0-.82-.45c-.35.1-.56.46-.45.82" display="block"/><path fill="#74909B" d="M331.8 178.16l21.9-6.29-.36-1.23-21.89 6.29.35 1.23z" display="block"/><path fill="#ECECEC" d="M342.38 210.07l19.32-5.55-4.22-14.67-19.31 5.55 4.21 14.67z" display="block"/><path fill="#2AACEE" d="M347.26 182.07c.72-.21 1.48.21 1.69.94l.38 1.31-2.63.76-.38-1.32c-.2-.72.21-1.48.94-1.69" display="block"/><path fill="#F5911F" d="M352.07 182.83l-.19-.66.67-.19-.2-.67.67-.19-.19-.66.66-.19.19.66.19.66.19.67.19.66-.66.19-.66.19-.67.19-.66.19-.19-.66.66-.19z" display="block"/><path fill="#1EA14E" d="M347.54 188.36l1.41-.41 1.4-.4c.23.78-.22 1.59-1 1.81-.78.22-1.59-.23-1.81-1" display="block"/><path fill="#B96EC5" d="M354.51 185.39c.66.37.9 1.2.53 1.86l-1.19-.67.66-1.19z" display="block"/><path fill="#682C95" d="M352.66 185.92l1.2.66 1.19.66c-.37.66-1.2.9-1.86.54-.66-.37-.89-1.2-.53-1.86" display="block"/><path fill="#B8CF31" d="M348.21 188.17c.12.41.54.64.95.53.41-.12.64-.55.53-.95a.77.77 0 0 0-.95-.53c-.41.12-.65.54-.53.95" display="block"/><path fill="#164D9D" d="M338.38 191.23a1.366 1.366 0 1 0 2.633-.748 1.366 1.366 0 0 0-2.633.748" display="block"/><path fill="#2AACEE" d="M339.27 190.97c.06.24.31.37.55.31a.46.46 0 0 0 .31-.56.455.455 0 0 0-.56-.3c-.23.07-.37.31-.3.55" display="block"/><path fill="#B96EC5" d="M338.73 187.59l.85-1.53-1.53-.85" display="block"/><path fill="#682C95" d="M337.54 187.94l.85-1.53-1.53-.85" display="block"/><path fill="#F692B0" d="M343.64 191.02l-.7-2.42 3.12 1.73-2.42.69z" display="block"/><path fill="#EB3064" d="M342.94 188.61l2.42-.7.7 2.42-3.12-1.72z" display="block"/><path fill="#F5911F" d="M356.67 201.64l1.41-.41 1.4-.4c.23.78-.22 1.59-1 1.81-.78.22-1.59-.22-1.81-1" display="block"/><path fill="#164D9D" d="M353.83 201.48c.66.37.9 1.2.53 1.86l-1.19-.67.66-1.19z" display="block"/><path fill="#2AACEE" d="M351.98 202.01l1.2.66 1.19.66c-.37.66-1.2.9-1.86.54-.66-.37-.89-1.2-.53-1.86" display="block"/><path fill="#FBBE3A" d="M357.33 201.44c.12.41.54.64.95.53.41-.12.64-.55.53-.95a.77.77 0 0 0-.95-.53c-.41.12-.65.54-.53.95" display="block"/><path fill="#EB3064" d="M347.13 204.61a1.366 1.366 0 1 0 2.633-.748 1.366 1.366 0 0 0-2.633.748" display="block"/><path fill="#F692B0" d="M348.02 204.36c.06.24.31.37.55.31a.46.46 0 0 0 .31-.56.455.455 0 0 0-.56-.3c-.23.07-.37.31-.3.55" display="block"/><path fill="#B96EC5" d="M342.1 204.75l2.42-.7-1.72 3.12-.7-2.42z" display="block"/><path fill="#682C95" d="M344.53 204.05l.69 2.42-2.42.7 1.73-3.12z" display="block"/><path fill="#B8CF31" d="M347.95 197.92l.34 1.2.35 1.19a1.244 1.244 0 0 1-.69-2.39" display="block"/><path fill="#1EA14E" d="M346.23 201.01l-.35-1.2-.34-1.19a1.244 1.244 0 0 1 .69 2.39" display="block"/><path fill="#FBBE3A" d="M343.72 183.21l.34 1.19.35 1.2a1.244 1.244 0 0 1-.69-2.39" display="block"/><path fill="#F5911F" d="M342 186.29l-.35-1.2-.34-1.19a1.244 1.244 0 0 1 .69 2.39" display="block"/><path fill="#F692B0" d="M357.16 198.15c-.73.2-1.49-.22-1.69-.94l-.38-1.31 1.31-.38.76 2.63z" display="block"/><path fill="#EB3064" d="M358.1 196.45c.21.73-.21 1.48-.94 1.69l-.75-2.62 1.31-.38.38 1.31z" display="block"/><path fill="#B96EC5" d="M352.77 196.5l.7 2.42-3.12-1.72 2.42-.7z" display="block"/><path fill="#682C95" d="M350.7 198.41l1.21-.35.35 1.21-1.56-.86z" display="block"/><path fill="#F5911F" d="M340.94 200.09c.2-.37.67-.51 1.05-.3.21-.37.68-.51 1.05-.3.37.2.51.67.3 1.05l-.74 1.34h-.01v.01l-1.35-.75a.773.773 0 0 1-.3-1.05" display="block"/><path fill="#AEBDC5" d="M336.08 183.18l10.62-3.05-.33-1.15-10.62 3.05.33 1.15z" display="block"/><path fill="#AEBDC5" d="M340.19 198.06l12.6-3.62-.33-1.15-12.6 3.62.33 1.15z" display="block"/><path fill="#F8BAB4" d="M383.06 202.73c-.29-.57-.71-1.12-1.13-1.44l-13.09-10.12c-.64-.49-1.82-.82-2.62-.72 0 0-13.47-.87-14.2-.93-1.05-.09-2.61-.47-3 .68-.49 1.45 1.57 2.94 2.54 3.33 1.71.68 6.08 1.17 7.46 1.68s1.35 1.51 1.6 2.28c0 0 2.12 6.45 6.53 7.51 3.22.78 6.02 3.01 6.02 3.01.45.67 3.38 4.26 3.38 4.26l7.91-3.19-1.4-6.35z" display="block"/><path fill="#F8BAB4" d="M452.34 149.38c-6.86 1.29-25.13 2.7-29.61-17.44-4.69-21.14-25.58-14.31-31.84-11.74-.09 1.77-1.23 25.11 1.87 27.21 3.23 2.2 6.57-.91 9.17 1.48 2.6 2.39 2.45 8.48 7.25 9.02 4.8.54 9.51-1.91 13.26-.34 4.1 1.71 5.47 13.58 5.47 13.58l33.52-.77s-6.78-12.28-9.09-21" display="block"/><path fill="#F8BAB4" d="M396.75 234.52s-13.77 30.77-21.75 33.83c-25.63 9.82-31.13-38.84-35.32-46.01-1.68-2.88-7.6-11.53-8.35-15.24-.74-3.7-1.56-16.23 2.35-18.28.44-.43 4.4 17.72 6.36 18.94 4.2 2.62 3.6-10.94 7.38-10.33 2.62.42.84 11.21 1.18 15.29.18 2.12 12.42 29.78 16.45 28.32 3.96-1.44 9.27-17.97 9.27-17.97l22.43 11.45z" display="block"/><g display="block"><path fill="#B8CF30" d="M460.322 161.75s-18.854 5.026-34.778 3.041c-15.925-1.982-39.355 6.392-47.094 39.563-2.064 8.843-8.7 19.851-8.7 19.851l27.91 16.251 5.266-9.42-6.126 123.243 87.892 4.407s-1.516-91.682 4.131-118.589c2.851-13.589 9.368-29.476 9.396-44.552.025-14.397-5.297-23.53-9.353-27.409-5.939-5.677-16.528-6.636-23.006-6.636-3.305 0-5.538.25-5.538.25z"/><path fill="url(#b)" d="M26.325-98.343S7.471-93.317-8.453-95.302c-15.925-1.982-39.355 6.392-47.094 39.563-2.064 8.843-8.7 19.851-8.7 19.851l27.91 16.251 5.266-9.42-6.126 123.243 87.892 4.407S49.179 6.911 54.826-19.996c2.851-13.589 9.368-29.476 9.396-44.552.025-14.397-5.297-23.53-9.353-27.409-5.939-5.677-16.528-6.636-23.006-6.636-3.305 0-5.538.25-5.538.25z" transform="translate(433.997 260.093)"/></g><path fill="#F5911F" d="M422.73 131.94c4.47 20.14 22.75 18.73 29.61 17.44-1.04-3.92-1.59-8.02-1.01-11.64 2.09-12.95 6.37-21.6 7.07-33.1.91-14.65-14.26-25.42-25.45-23.31-8.13 1.52-13.95 3.24-13.95 3.24s-6.07-8.56-14.42-6.05c-10.22 3.09-11.33 18.12-16.44 21.03-5.63 3.21-9.08 1.04-13.95 1.78-5 .77-4.53 16.89 11.67 18.46 6.4.62 5.03.3 5.03.3s0 .05-.01.12c6.26-2.58 27.15-9.4 31.85 11.73" display="block"/><path fill="#253139" d="M428.8 134.37c-1.09 6.76-7.44 11.35-14.19 10.26-6.76-1.09-11.35-7.44-10.26-14.2 1.09-6.75 7.44-11.34 14.19-10.25 6.76 1.09 11.35 7.44 10.26 14.19" display="block"/><path fill="#74909B" d="M421.16 133.14c-.41 2.53-2.79 4.26-5.32 3.85a4.638 4.638 0 0 1-3.85-5.32 4.638 4.638 0 0 1 5.32-3.85c2.54.41 4.26 2.79 3.85 5.32" display="block"/><path fill="#253139" d="M414.501 127.419c.31.02.62-.01.93-.07a3.777 3.777 0 0 0 2.97-4.46c-4.9-24.48 8.53-37.81 9.1-38.36 1.5-1.45 1.55-3.84.11-5.35a3.777 3.777 0 0 0-5.34-.13c-.7.66-17.05 16.59-11.29 45.33a3.781 3.781 0 0 0 3.52 3.04" display="block"/><path fill="#FFF" d="M398.89 240.08l2.45-4.36-28.92-15.58-2.27 4.46 28.74 15.48z" display="block"/><path fill="#FFF" d="M403.61 231.54l2.48-4.48s-29.64-16-30.03-16.17c-.9 2.81-1.79 5.04-1.79 5.04l29.34 15.61z" display="block"/><path fill="#253139" d="M641.49 357.09c-.61 0-1.21-.19-1.73-.58a2.875 2.875 0 0 1-.57-4.03l23.38-31.09a2.875 2.875 0 0 1 4.03-.57c1.27.95 1.53 2.76.57 4.03l-23.38 31.09c-.57.75-1.43 1.15-2.3 1.15" display="block"/><path fill="#A97B50" d="M576.12 245.27c-2.1-10.34-2.78-13.66-4.64-20.27-4.99.05-8.9-9.58-19.07.09-2.78 2.64-8.75 22.28-10.26 23.12-1.52.84-.84.84-1.01-.5-.17-1.35-4.71-11.86-9.25-11.35-4.54.5-10.68 7.72-10.51 15.3.17 7.58 2.27 11.69 2.27 11.69s-5.3 11.45-18.87 8.66c-1.08 6.13-3.1 11.98-6.61 16.49L535 321.43s-4.04-22.86 2.52-28.36c6.56-5.5 16.15.4 20.69-4.57 4.54-4.97 5.55-15.48 9.08-18.3 3.53-2.82 11.52-3.28 11.62-6.47.18-5.89-1.72-13.19-2.79-18.46" display="block"/><path fill="#221F1F" d="M527.43 265.37s-3.2-5.38-3.37-12.96c-.17-7.58 3.03-11.26 7.57-11.76 4.54-.51 7.3 8.77 7.9 10.93.37 1.3 2.19 1.85 3.37 0 .93-1.46 9.58-20.86 11.94-23.88 1.75-2.25 11.64-2.64 16.63-2.7-.43-1.73-.83-3.28-1.16-4.53-2.02-7.57-21.02-25.74-45.07-13.63-24.05 12.11-22.03 29.77-21.53 30.78.37.73 3.89 18.47 1.07 34.39 13.56 2.79 22.65-6.64 22.65-6.64" display="block"/><path fill="#221F1F" d="M571.47 225s4.51-.5 3.63-3.4c-.88-2.9-4.86-.74-6.34-4.41-1.48-3.66 1.8-5.81-.43-7.46-1.52-1.14-3.37.01-6.73-1.12-3.35-1.14-1.26-5.55-4.03-6.43-2.78-.89-3.03 2.74-5.17 1.94-2.15-.81-4.8-5.1-7.44-4.84-2.65.25-3.28 2.39-5.68 2.39s-2.4-2.54-5.42-2.4c-3.03.13-2.65 4.01-4.8 4.85-2.14.83-4.92-.71-6.56 0-1.64.71-.88 3.35-3.15 4.49-2.27 1.13-5.55-1.51-7.69.88-2.15 2.4.25 4.92-.89 6.56-1.13 1.64-4.41.88-5.67 2.27-1.26 1.39-.38 2.27 0 4.92s-4.04 2.4-5.05 4.29c-1.01 1.89 3.6 9.93 4.83 16.57l22.04-16.45 35.69-6.87 8.86 4.22z" display="block"/><path fill="#EE542F" d="M536.01 323.89s7.15 7.34 7.82 10.59c1.19 5.81-.71 14.77-.71 14.77l-15.98-20.68 8.87-4.68z" display="block"/><path fill="#FFF" d="M507.64 296.97l32.4 26.92-10.35 8.83-22.05-35.75z" display="block"/><path fill="#012848" d="M493.62 290.99s-22 16.22-29.23 26.75c-6.3 9.18-13.13 35.2-5.58 62.91 8.88 32.59 10.34 65.08 10.03 66.14-.31 1.06 20.93 7.63 41.68 4.24 20.76-3.4 33.32-12.62 33.32-12.62l12.45-7.5s-1.17-62.25-7.17-71.96c-6-9.71-55.5-67.96-55.5-67.96" display="block"/><path fill="#164D9D" d="M549.12 358.96l-49.81-80.57-8.4 15.21 58.21 65.36z" display="block"/><path fill="#A97B50" d="M593.52 380.64l27.75-37.84s1.28-2.45 4.81-2.45c3.53 0 3.01 3.62 5.78 4.8 2.78 1.18 26.49 0 26.49 0s3.99-.1 3.62 3.25c-.51 4.67-7.37 3.25-7.66 5.75-.23 2.07 3.37 2.32 2.16 5.04-1.58 3.56-7.82 2.08-8.13 4.39-.24 1.68 1.9 3.3.57 5.36-1.85 2.86-20.76.6-24.96 4.13-4.19 3.54-15.55 15.86-15.55 15.86l-14.88-8.29z" display="block"/><path fill="#FFF" d="M590.79 380.79l9.39-10.25 22.14 21.6-11.95 10.6-19.58-21.95z" display="block"/><path fill="#164D9D" d="M559.55 404.61l34.31-27.24 19.84 25.4s-44.73 49.83-54.15 49.04c-9.42-.78-69.96-58.06-80.01-76.63-9.92-18.34-13.83-37.9 1.3-46.61 15.14-8.72 28.93 7.99 28.93 7.99l49.78 68.05z" display="block"/><path stroke="#134888" d="M480.84 328.57l79.65 104.03L607 396.27" display="block" fill="none"/><path fill="#012848" d="M616.74 392.41c0 1.44-1.16 2.6-2.6 2.6-1.44 0-2.61-1.16-2.61-2.6 0-1.44 1.17-2.61 2.61-2.61s2.6 1.17 2.6 2.61" display="block"/><path fill="#253139" d="M242.16 307.65s-.82-1.59-2.7-1.57c-2.17.02-6.28 1.73-9.79 3.1-.28.11-.58.24-.9.36-.32.14-.62.27-.89.38-3.44 1.5-7.56 3.2-8.81 4.59-1.09 1.21.1 2.65.1 2.65l11.63 17.55s12 18.13 12.77 19.27c.38.57.9 1.35 2.05 1.54 1.62.28 6.38-1.69 10.36-3.19.29-.11.59-.23.91-.36.31-.13.61-.26.88-.38 3.83-1.73 8.6-3.7 9.23-4.91.45-.86-.07-1.64-.44-2.21-.74-1.15-12.77-19.27-12.77-19.27l-11.63-17.55z" display="block"/><path fill="#74909B" d="M264.38 342.94c.06.09.03.2-.08.24l-20.78 8.6c-.1.04-.23 0-.3-.09l-22.75-34.33c-.06-.1-.03-.21.08-.25l20.78-8.59c.1-.05.23-.01.29.09l22.76 34.33z" display="block"/><path fill="#FFF" d="M247.82 348.75c.06.1.02.16-.09.14l-1.07-.19c-.11-.02-.16-.11-.11-.21l.39-.74c.05-.1.15-.11.21-.01l.67 1.01z" display="block"/><path fill="#FFF" d="M253.55 345.74c.25.37.12.81-.29.98-.4.17-.94 0-1.18-.37-.25-.38-.12-.82.29-.98.4-.17.93-.01 1.18.37" display="block"/><path fill="#FFF" d="M259.73 343.83c.07.09.03.2-.07.24l-1.11.46c-.1.04-.23 0-.29-.09l-.68-1.02c-.06-.09-.03-.2.07-.25l1.11-.45c.1-.05.24 0 .3.09l.67 1.02z" display="block"/><path fill="#FFF" d="M251.33 325.71l-18.66 7.71-8.64-13.03 18.66-7.72 8.64 13.04z" display="block"/><path fill="#546E77" d="M230.52 311c.21.31.1.68-.24.82a.85.85 0 0 1-.99-.31c-.21-.32-.1-.68.24-.83.34-.14.78 0 .99.32" display="block"/><path fill="#46565B" d="M242.23 309.53l-21.15 8.75-.73-1.09 21.15-8.75.73 1.09z" display="block"/><path fill="#ECECEC" d="M259.97 338.75l-18.66 7.71-8.64-13.03 18.66-7.72 8.64 13.04z" display="block"/><path fill="#2AACEE" d="M233.98 321.67c-.7.29-.92 1.05-.49 1.69l.77 1.17 2.54-1.05-.78-1.17c-.42-.64-1.34-.93-2.04-.64" display="block"/><path fill="#F5911F" d="M231.04 325.13l-.39-.59-.64.26-.39-.59-.64.27-.39-.59-.64.26.39.59.39.59.39.59.39.59.64-.27.64-.26.64-.27.64-.26-.39-.59-.64.27z" display="block"/><path fill="#1EA14E" d="M238.81 326.34l-1.36.56-1.36.56c.46.69 1.44 1 2.19.69.75-.31.99-1.12.53-1.81" display="block"/><path fill="#B96EC5" d="M231.29 328.44c-.19.66.3 1.4 1.09 1.65l.36-1.2-1.45-.45z" display="block"/><path fill="#682C95" d="M233.08 327.69l-.35 1.2-.35 1.19c.8.25 1.6-.08 1.79-.74.2-.66-.29-1.4-1.09-1.65" display="block"/><path fill="#B8CF31" d="M238.16 326.6c.24.37.11.79-.28.96-.39.16-.91 0-1.15-.36-.24-.37-.11-.79.28-.96.4-.16.91 0 1.15.36" display="block"/><path fill="#164D9D" d="M247.84 322.85c.43.65.21 1.41-.49 1.69-.7.29-1.62.01-2.04-.64-.43-.64-.21-1.4.49-1.69.7-.29 1.62 0 2.04.64" display="block"/><path fill="#2AACEE" d="M246.99 323.21c.14.21.07.45-.16.55-.23.09-.53 0-.67-.21s-.07-.46.16-.55c.23-.1.53 0 .67.21" display="block"/><path fill="#B96EC5" d="M244.68 320.47l-1.85-.59.45-1.53" display="block"/><path fill="#682C95" d="M245.83 320l-1.85-.59.45-1.53" display="block"/><path fill="#F692B0" d="M243.81 325.89l-1.43-2.15-.91 3.12 2.34-.97z" display="block"/><path fill="#EB3064" d="M242.38 323.74l-2.34.97 1.43 2.15.91-3.12z" display="block"/><path fill="#F5911F" d="M242.71 341.35l-1.36.56-1.36.56c.46.69 1.44 1 2.19.69.75-.31.99-1.12.53-1.81" display="block"/><path fill="#164D9D" d="M244.67 339.53c-.19.66.3 1.4 1.1 1.65l.35-1.2-1.45-.45z" display="block"/><path fill="#2AACEE" d="M246.46 338.79l-.35 1.2-.35 1.19c.8.25 1.6-.08 1.79-.74.2-.66-.29-1.4-1.09-1.65" display="block"/><path fill="#FBBE3A" d="M242.06 341.61c.24.37.11.79-.28.96-.39.16-.91 0-1.15-.36-.24-.37-.11-.79.28-.96.4-.16.91 0 1.15.36" display="block"/><path fill="#EB3064" d="M252.11 337.71c.43.65.21 1.41-.49 1.69-.7.29-1.62.01-2.04-.64-.43-.64-.21-1.4.49-1.69.7-.29 1.62 0 2.04.64" display="block"/><path fill="#F692B0" d="M251.26 338.07c.14.21.07.45-.16.55-.23.09-.53 0-.67-.21s-.07-.46.16-.55c.23-.1.53 0 .67.21" display="block"/><path fill="#B96EC5" d="M255.92 334.76l-2.34.97 3.76 1.18-1.42-2.15z" display="block"/><path fill="#682C95" d="M253.58 335.73l1.43 2.15 2.33-.97-3.76-1.18z" display="block"/><path fill="#B8CF31" d="M246.16 333.42l.7 1.06.71 1.07c.64-.27.84-.96.45-1.54-.39-.59-1.22-.85-1.86-.59" display="block"/><path fill="#1EA14E" d="M249.9 334.58l-.71-1.06-.7-1.06c-.64.26-.84.95-.45 1.54.39.59 1.22.85 1.86.58" display="block"/><path fill="#FBBE3A" d="M237.49 320.35l.7 1.06.71 1.07c.64-.27.84-.96.45-1.54-.39-.59-1.22-.85-1.86-.59" display="block"/><path fill="#F5911F" d="M241.23 321.51l-.71-1.06-.7-1.06c-.64.26-.84.95-.45 1.54.39.59 1.22.85 1.86.58" display="block"/><path fill="#F692B0" d="M239.55 339.16c.7-.29.92-1.05.49-1.69l-.77-1.17-1.27.52 1.55 2.34z" display="block"/><path fill="#EB3064" d="M237.51 338.51c.43.64 1.34.93 2.04.64l-1.54-2.33-1.27.52.77 1.17z" display="block"/><path fill="#B96EC5" d="M241.46 335.33l1.43 2.15.91-3.12-2.34.97z" display="block"/><path fill="#682C95" d="M244.52 335.44l-1.17.48.71 1.08.46-1.56z" display="block"/><path fill="#F5911F" d="M253.06 330.74c-.45-.14-.91.04-1.02.42-.45-.14-.91.05-1.02.42-.11.37.17.79.62.93l1.63.51h.01l.4-1.35c.1-.37-.17-.79-.62-.93" display="block"/><path fill="#74909B" d="M234.87 318.76l-8.52 3.53-.73-1.11 8.52-3.52.73 1.1z" display="block"/><path fill="#74909B" d="M246.74 330.93l-11.5 4.76-.73-1.1 11.5-4.76.73 1.1z" display="block"/><path fill="#ECCA97" d="M340.7 293.12c-7.23-5.97-12.19-23.97-12.97-25.15-.78-1.19-6.19.46-6.19.46l-2.98-6.42-2.14 4.73-8.46.96c.33 1.03-.13-.79 0 0 2.7 16.23-3.05 24.81-2.39 26.01.67 1.19 1.08.81 8.94 3.48 5.69 1.93 4.85 15.2 9.66 16.5 4.8 1.3 12.95-.04 17 4.73 2.52 2.97 3.24 9.04 3.24 9.04l20.84-6.24c-7.13-10.66-17.73-22.48-24.55-28.1" display="block"/><path fill="#9952A4" d="M344.64 341.91s-2.74-15.37-8.26-22.43l27.02-8.09 13.5 20.73-32.26 9.79z" display="block"/><path fill="#B96EC5" d="M371.69 328.08s-31.23 5.75-41.62 14.69c-8.93 7.68-32.02 40.12-31.81 51.67.14 7.63-4.84-3.33-6.36 3.71-1.52 7.05 39.12-9.6 34.55-7.6 0 0-1.81 9.04 4.16 19.72 3.74 6.69 9.22 11.77 11.87 20.4 2.29 7.46 3.43 13.71 3.95 18.64 23.81-4.84 41.01-7.35 64.01-8.1-1.64-4.27-2.86-8.6-3.34-12.76-2.38-20.6 9.24-68.55 1.69-73.24-7.55-4.7-37.1-27.13-37.1-27.13" display="block"/><path fill="#ECCA97" d="M274.46 361.33s-1.54-9.44-7.14-14.02c-5.61-4.57-21.1-11.72-23-14.9 0 0-3.61 3.73 2.14 7.6 5.32 3.56 4.67 8.39 4.67 8.39s-9.95.4-14.94-6.22c-3.73-4.94-8.05-11.37-8.05-11.37s-3.24 1.12 1.56 9.76c4.8 8.64 10.68 14.7 15.59 15.86 8.11 1.91 16.86 6.93 21.84 10.43 4.97 3.51 7.33-5.53 7.33-5.53" display="block"/><path stroke="#854692" stroke-width="1.095" d="M339.95 318.41l6.46 16.25" display="block" fill="none"/><path stroke="#854692" stroke-width="1.095" d="M343.03 317.36l6.51 16.33" display="block" fill="none"/><path stroke="#854692" stroke-width="1.095" d="M346.18 316.47l6.57 16.46" display="block" fill="none"/><path stroke="#854692" stroke-width="1.095" d="M349.34 315.6l6.61 16.57" display="block" fill="none"/><path stroke="#854692" stroke-width="1.095" d="M352.47 314.67l6.68 16.75" display="block" fill="none"/><path stroke="#854692" stroke-width="1.095" d="M355.6 313.73l6.75 16.93" display="block" fill="none"/><path stroke="#854692" stroke-width="1.095" d="M358.72 312.79l6.83 17.11" display="block" fill="none"/><path fill="#9952A4" d="M332.98 343.61s13.9-.44 17.56 12.3c4.51 15.65-17.57 33.42-17.57 33.42-1.89 1.52-4.86 4.16-6.6 5.86l-19.11 18.71a4.43 4.43 0 0 1-6.25-.07l-44.71-45.55c-1.7-1.74-1.33-4.08.81-5.22l14.86-7.83c2.15-1.14 5.26-.61 6.92 1.16l19.75 21.1c1.66 1.77 4.06 1.53 5.34-.54 0 0 19.66-31.87 29-33.34" display="block"/><path stroke="#AE69BB" stroke-width="1.095" d="M365.55 329.9s23.83 36.21 21.88 57.04c-1.28 13.75-1.66 31.85 6.88 55.11" display="block" fill="none"/><path fill="#253139" d="M382.2 248.36c-5.45-13.44-18.06-19.39-27.1-20.5-13.04-1.6-24 6.11-24 6.11s-3.37-.67-11.39.67c-8.03 1.34-10.56 7.16-12.56 11.36-3.26 6.84-1.06 15.87.8 21.7l8.47-.96 2.14-4.73 2.97 6.42s1.15.06 6.2-.46c.78 1.18.01 13.29 10.82 25.12 7.08 7.75 19.56 15.52 26.69 28.13l9.4-3s-6.18-11 3.26-33.62c6.38-15.28 7.7-27.82 4.3-36.24" display="block"/><path fill="#253139" d="M365.62 326.19s.08 30.29 17.19 33.37c12.67 2.28 9.41 9.43 17.84 13.41 8.42 3.99 19.46 5.61 25.87-.04 6.41-5.66.8-18.91 10.1-29.51 4.37-5 10.93-10.64 10.34-20.93-.59-10.3-8.82-7.64-11.2-6.55-6.94 3.18-5.62 20.43-25.65 15.86-3.23-.73-9.93-6.82-13.38-8.49-7.68-3.74-18.62 2.36-20.02-.9-1-2.34-3.96-.76-3.96-.76l-7.13 4.54z" display="block"/><path fill="#EE542F" d="M378.66 321.73l-13.84 4.84-2.33-6.64 13.84-4.85 2.33 6.65z" display="block"/></g></svg>