<svg xmlns="http://www.w3.org/2000/svg" xmlns:xlink="http://www.w3.org/1999/xlink" width="62.65289306640625" height="62.65289306640625" style=""><rect id="backgroundrect" width="100%" height="100%" x="0" y="0" fill="none" stroke="none" class="" style=""/>
  <defs>
    <style>
      .cls-1 {
        fill-rule: evenodd;
        fill: url(#linear-gradient);
      }
    </style>
    <linearGradient id="linear-gradient" x1="928" y1="1304.5" x2="989" y2="1304.5" gradientUnits="userSpaceOnUse">
      <stop offset="0" stop-color="#13c5d0"/>
      <stop offset="1" stop-color="#7df4dc"/>
    </linearGradient>
  </defs>
  
<g class="currentLayer" style=""><title>Layer 1</title><path id="Icon" class="cls-1 selected" d="M32.613000000000056,28.38000000000011 a1.191,1.191 0 0 0 -1.151,-0.30000000000000004 l-23.72,6.35 a1.191,1.191 0 0 0 -0.8430000000000001,0.8400000000000001 a1.209,1.209 0 0 0 0.30900000000000005,1.1600000000000001 l3.575,3.5700000000000003 l-10.41,10.41 a1.192,1.192 0 0 0 -0.3490000000000001,0.8400000000000001 a1.175,1.175 0 0 0 0.3490000000000001,0.8400000000000001 l8.53,8.53 a1.189,1.189 0 0 0 1.685,0 L21,50.22000000000003 l3.575,3.5700000000000003 a1.179,1.179 0 0 0 0.8430000000000001,0.35000000000000003 a1.082,1.082 0 0 0 0.30800000000000005,-0.04000000000000001 a1.192,1.192 0 0 0 0.8430000000000001,-0.8400000000000001 l6.356,-23.73 A1.2,1.2 0 0 0 32.613000000000056,28.38000000000011 zm-22.868,29.72 l-1.852,-1.85 l2.919,-2.92 a1.193,1.193 0 0 0 -1.685,-1.6900000000000002 l-2.919,2.92 l-3.308,-3.31 l9.568,-9.56 l6.844,6.84 zm15.053,-7.45 l-2.957,-2.96 h0 l-8.527,-8.53 h0 l-2.956,-2.96 l19.734,-5.29 zm17.443,-31.89 a1.183,1.183 0 0 0 -1.685,0 l-4.993,4.99 a1.186,1.186 0 0 0 0,1.6800000000000002 a1.189,1.189 0 0 0 1.685,0 l4.993,-4.99 A1.186,1.186 0 0 0 42.240999999999985,18.75999999999999 zm-0.8160000000000001,15.51 l-4.177,-4.18 a1.193,1.193 0 0 0 -1.685,1.6900000000000002 l4.177,4.17 a1.188,1.188 0 0 0 1.6840000000000002,0 A1.185,1.185 0 0 0 41.424999999999955,34.26999999999998 zm3.534,3.5300000000000002 a1.2,1.2 0 1 0 0.3490000000000001,0.8500000000000001 A1.209,1.209 0 0 0 44.958999999999946,37.799999999999955 zm-14.052,-14.05 l-4.993,-4.99 a1.19,1.19 0 1 0 -1.685,1.6800000000000002 l4.993,4.99 a1.189,1.189 0 0 0 1.685,0 A1.186,1.186 0 0 0 30.90700000000004,23.75 zm13.873,2.8200000000000003 h-2.224 a1.19,1.19 0 1 0 0,2.38 h2.224 A1.19,1.19 0 1 0 44.77999999999997,26.569999999999936 zm-11.545,-11.54 a1.189,1.189 0 0 0 -1.191,1.19 v2.22 a1.191,1.191 0 0 0 2.382,0 v-2.22 A1.189,1.189 0 0 0 33.235000000000014,15.029999999999973 zm17.757,-6.26 a1.21,1.21 0 1 1 1.4300000000000002,-1.19 a1.192,1.192 0 0 0 2.383,0 a3.606,3.606 0 0 0 -2.623,-3.39 a1.19,1.19 0 0 0 -2.38,0 a3.605,3.605 0 0 0 -2.622,3.39 a3.7,3.7 0 0 0 3.8120000000000003,3.5700000000000003 a1.21,1.21 0 1 1 -1.4300000000000002,1.19 a1.191,1.191 0 0 0 -2.382,0 a3.606,3.606 0 0 0 2.623,3.39 a1.19,1.19 0 0 0 2.378,0 a3.606,3.606 0 0 0 2.624,-3.39 A3.7,3.7 0 0 0 50.99199999999996,8.769999999999982 zm0,-8.77 A10.005,10.005 0 1 0 61,10.009999999999991 A10.02,10.02 0 0 0 50.99199999999996,0 zm0,17.63 a7.625,7.625 0 1 1 7.625,-7.62 A7.632,7.632 0 0 1 50.99199999999996,17.63000000000011 zm-40.984,-8.86 a1.21,1.21 0 1 1 1.429,-1.19 a1.192,1.192 0 0 0 2.383,0 a3.605,3.605 0 0 0 -2.622,-3.39 a1.19,1.19 0 0 0 -2.38,0 a3.606,3.606 0 0 0 -2.623,3.39 a3.7,3.7 0 0 0 3.813,3.5700000000000003 a1.21,1.21 0 1 1 -1.4300000000000002,1.19 a1.192,1.192 0 0 0 -2.383,0 a3.606,3.606 0 0 0 2.624,3.39 a1.19,1.19 0 0 0 2.378,0 a3.606,3.606 0 0 0 2.623,-3.39 A3.7,3.7 0 0 0 10.008000000000038,8.769999999999982 zm0,-8.77 a10.005,10.005 0 1 0 10.008,10.01 A10.02,10.02 0 0 0 10.008000000000038,0 zm0,17.63 a7.625,7.625 0 1 1 7.625,-7.62 A7.632,7.632 0 0 1 10.008000000000038,17.63000000000011 zm40.984,32.12 a1.206,1.206 0 1 1 1.4300000000000002,-1.18 a1.192,1.192 0 0 0 2.383,0 a3.6180000000000003,3.6180000000000003 0 0 0 -2.623,-3.4 a1.19,1.19 0 0 0 -2.38,0 a3.617,3.617 0 0 0 -2.622,3.4 a3.707,3.707 0 0 0 3.8120000000000003,3.5700000000000003 a1.206,1.206 0 1 1 -1.4300000000000002,1.18 a1.191,1.191 0 0 0 -2.382,0 a3.6,3.6 0 0 0 2.623,3.39 a1.19,1.19 0 0 0 2.378,0 a3.6,3.6 0 0 0 2.624,-3.39 A3.7,3.7 0 0 0 50.99199999999996,49.75 zm0,-8.77 A10.01,10.01 0 1 0 61,50.99000000000001 A10.02,10.02 0 0 0 50.99199999999996,40.98000000000002 zm0,17.64 a7.63,7.63 0 1 1 7.625,-7.63 A7.641,7.641 0 0 1 50.99199999999996,58.61999999999989 zm-37.256,-9.9 a1.189,1.189 0 0 0 -1.685,0 a1.185,1.185 0 0 0 0,1.6800000000000002 A1.19,1.19 0 1 0 13.73599999999999,48.72000000000003 z" stroke="#296829" stroke-opacity="1" stroke-width="2"/><image id="svg_4" x="33" y="29" width="1" height="0" style="color: rgb(49, 91, 49);" xlink:href="logo/vector_paint_icon256.png"/><image id="svg_8" x="28" y="19" width="0" height="1" style="color: rgb(49, 91, 49);" xlink:href="logo/vector_paint_icon256.png"/></g></svg>