<svg xmlns="http://www.w3.org/2000/svg" enable-background="new 0 0 511.999 511.999" width="511.9989929199219" height="511.9989929199219" style="width:65px; height:65px" version="1.1" xml:space="preserve"><rect id="backgroundrect" width="100%" height="100%" x="0" y="0" fill="none" stroke="none"/>
				
				
				
				
				
<g class="currentLayer" style=""><title>Layer 1</title><path d="m500.52,255.1735537648201 h-8.973 c0,-129.88 -105.66,-235.55 -235.55,-235.55 c-11.494,0 -20.812,9.318 -20.812,20.812 s9.318,20.812 20.812,20.812 c106.93,0 193.92,86.993 193.92,193.92 h-8.971 c-8.824,0 -14.341,9.553 -9.929,17.196 l29.785,51.588 c4.412,7.642 15.444,7.642 19.856,0 l29.784,-51.588 c4.412,-7.642 -1.104,-17.196 -9.928,-17.196 z" id="svg_1" class="" fill="#009900" fill-opacity="1"/><path d="m256,449.0935537648201 c-106.93,0 -193.92,-86.993 -193.92,-193.92 h8.971 c8.824,0 14.341,-9.553 9.927,-17.197 l-29.784,-51.588 c-4.412,-7.642 -15.444,-7.642 -19.856,0 l-29.783,51.59 c-4.412,7.642 1.103,17.196 9.927,17.196 h8.971 c0,129.88 105.66,235.55 235.55,235.55 c11.494,0 20.812,-9.318 20.812,-20.812 c0.003,-11.495 -9.316,-20.813 -20.809,-20.813 z" id="svg_2" class="" fill="#009900" fill-opacity="1"/><path d="m253.16 235.23v-18.295c-11.205 2.241-15.031 11.966 0 18.295z" id="svg_3"/><path d="m261.77 263.67v20.603c5.228-1.231 9.379-4.151 9.379-9.686 1e-3 -5.074-3.843-8.303-9.379-10.917z" id="svg_4"/><path d="m256.8264462351799,103.63355376482009 c-83.559,0 -151.54,67.98 -151.54,151.54 s67.979,151.54 151.54,151.54 s151.54,-67.98 151.54,-151.54 s-67.98,-151.54 -151.54,-151.54 zm7.306,201.18 v4.458 c0,2.153 -2.9210000000000003,4.151 -5.843,4.151 c-3.383,0 -5.841,-1.998 -5.841,-4.151 v-3.843 c-18.449,-0.6150000000000001 -33.517,-10.148 -33.517,-19.987 c0,-5.228 4.613,-12.915 10.455,-12.915 c6.457,0 11.685,9.071 23.063,11.071 v-24.907 c-14.144,-5.381 -30.749,-11.992 -30.749,-31.672 c0,-19.526 14.452,-28.904 30.749,-31.21 v-4.305 c0,-2.152 2.46,-4.151 5.841,-4.151 c2.9210000000000003,0 5.843,1.999 5.843,4.151 v3.845 c9.532,0.30800000000000005 27.521,2.7680000000000002 27.521,13.375 c0,4.151 -2.7670000000000003,12.607 -9.532,12.607 c-5.074,0 -7.995,-4.92 -17.989,-5.689 v22.447 c13.991,5.228 30.287,12.454 30.287,33.209 c-0.001,19.064 -12.299,30.595 -30.288,33.516 z" id="svg_5" class="" fill="#009900" fill-opacity="1"/></g></svg>