<svg xmlns="http://www.w3.org/2000/svg" xmlns:xlink="http://www.w3.org/1999/xlink" width="65" height="65" version="1.1"><rect id="backgroundrect" width="100%" height="100%" x="0" y="0" fill="none" stroke="none"/>

<g class="currentLayer" style=""><title>Layer 1</title><g id="surface1" class="" fill="#009900" fill-opacity="1">
<path style="stroke: none; fill-rule: nonzero;" d="M 2.121094 7.066406 C 0.949219 7.066406 0 8.015625 0 9.183594 L 0 28.261719 L 9.625 28.261719 C 8.902344 27.011719 8.476562 25.566406 8.476562 24.023438 C 8.476562 19.347656 12.28125 15.542969 16.957031 15.542969 C 18.503906 15.542969 19.949219 15.964844 21.195312 16.691406 L 21.195312 7.066406 Z M 2.121094 7.066406 " id="svg_1" fill="#009900" fill-opacity="1"/>
<path style="stroke: none; fill-rule: nonzero;" d="M 29.675781 19.78125 C 27.335938 19.78125 25.433594 21.683594 25.433594 24.023438 L 25.433594 26.140625 C 25.433594 26.867188 25.507812 27.574219 25.648438 28.261719 L 29.675781 28.261719 C 32.011719 28.261719 33.914062 26.359375 33.914062 24.023438 C 33.914062 21.683594 32.011719 19.78125 29.675781 19.78125 Z M 29.675781 19.78125 " id="svg_2" fill="#009900" fill-opacity="1"/>
<path style="stroke: none; fill-rule: nonzero;" d="M 16.957031 19.78125 C 14.617188 19.78125 12.71875 21.683594 12.71875 24.023438 C 12.71875 26.359375 14.617188 28.261719 16.957031 28.261719 L 20.980469 28.261719 C 21.121094 27.574219 21.195312 26.867188 21.195312 26.140625 L 21.195312 24.023438 C 21.195312 21.683594 19.292969 19.78125 16.957031 19.78125 Z M 16.957031 19.78125 " id="svg_3" fill="#009900" fill-opacity="1"/>
<path style="stroke: none; fill-rule: nonzero;" d="M 62.878906 7.066406 L 25.433594 7.066406 L 25.433594 16.691406 C 26.683594 15.964844 28.128906 15.542969 29.675781 15.542969 C 34.347656 15.542969 38.152344 19.347656 38.152344 24.023438 C 38.152344 25.566406 37.730469 27.011719 37.003906 28.261719 L 65 28.261719 L 65 9.183594 C 65 8.015625 64.050781 7.066406 62.878906 7.066406 Z M 62.878906 7.066406 " id="svg_4" fill="#009900" fill-opacity="1"/>
<path style="stroke: none; fill-rule: nonzero;" d="M 10.597656 40.976562 C 9.425781 40.976562 8.476562 40.027344 8.476562 38.859375 C 8.476562 37.6875 9.425781 36.738281 10.597656 36.738281 C 14.054688 36.738281 17.121094 35.066406 19.054688 32.5 L 0 32.5 L 0 55.816406 C 0 56.984375 0.949219 57.933594 2.121094 57.933594 L 21.195312 57.933594 L 21.195312 36.472656 C 18.503906 39.242188 14.757812 40.976562 10.597656 40.976562 Z M 10.597656 40.976562 " id="svg_5" fill="#009900" fill-opacity="1"/>
<path style="stroke: none; fill-rule: nonzero;" d="M 29.675781 32.5 L 27.574219 32.5 C 29.511719 35.070312 32.574219 36.738281 36.03125 36.738281 C 37.203125 36.738281 38.152344 37.6875 38.152344 38.859375 C 38.152344 40.027344 37.203125 40.976562 36.03125 40.976562 C 31.871094 40.976562 28.128906 39.242188 25.433594 36.472656 L 25.433594 57.933594 L 62.878906 57.933594 C 64.050781 57.933594 65 56.984375 65 55.816406 L 65 32.5 Z M 54.402344 49.457031 L 44.511719 49.457031 C 43.339844 49.457031 42.390625 48.507812 42.390625 47.335938 C 42.390625 46.167969 43.339844 45.21875 44.511719 45.21875 L 54.402344 45.21875 C 55.574219 45.21875 56.523438 46.167969 56.523438 47.335938 C 56.523438 48.507812 55.574219 49.457031 54.402344 49.457031 Z M 54.402344 40.976562 L 44.511719 40.976562 C 43.339844 40.976562 42.390625 40.027344 42.390625 38.859375 C 42.390625 37.6875 43.339844 36.738281 44.511719 36.738281 L 54.402344 36.738281 C 55.574219 36.738281 56.523438 37.6875 56.523438 38.859375 C 56.523438 40.027344 55.574219 40.976562 54.402344 40.976562 Z M 54.402344 40.976562 " id="svg_6" fill="#009900" fill-opacity="1"/>
</g></g></svg>